<svg xmlns="http://www.w3.org/2000/svg" viewBox="0 0 177.49 177.49"><defs><style>.cls-1{fill:#232629;}.cls-1,.cls-2{fill-rule:evenodd;}.cls-2{fill:#c22d36;}</style></defs><g id="Layer_2" data-name="Layer 2"><g id="Layer_1-2" data-name="Layer 1"><path class="cls-1" d="M88.75,150.61a58.63,58.63,0,0,0,15-33.9,142.47,142.47,0,0,1-3.23,25.16c9.45-10,11.29-22.74,10.93-37.2L118,98.93c1.31-1.16,1.72-.92,1.94.85,2.25,17.9,3.59,29.79,3.59,29.79a19.47,19.47,0,0,0,3.44,8.09q13.6,20.35,14.34,21.44a.68.68,0,0,0,1,.26c.21-.18.29-.54,0-1-8-12.22-12.58-19.17-14.12-21.53-1.29-2-1.5-4.4-1.79-6.71-1.28-10.28-2.34-21-4-31.18-.6-3.68-1.77-6.27-6-5.65A26.77,26.77,0,0,0,111,94.82c-.23-3.18-.52-6.47-.89-9.69,3-4.23,4.72-6.68,5.2-7.34s1-.91,1.65-.06c4.44,6.27,6.39,9.32,7.47,10.82,1.71,2.36,4.92,3.45,7.55,4.47q15.57,6.06,16.62,6.46a.58.58,0,0,0,.77-.33c.09-.26,0-.59-.45-.77l-16.14-6.56c-2.57-1-4.13-2.86-5.64-5-1.84-2.59-5-7.07-6.38-8.72-2.48-3.06-4.94-4.06-7.61-3.51a12,12,0,0,0-4.25,2c-1.32-7.69-3.18-13.74-5.66-14.87a5.77,5.77,0,0,0,3-4l7-1.53c4.3-.95,5.36-1.72,8.64-4.4l6.61-5.4a.72.72,0,0,0,.2-1c-.22-.29-.66-.4-1.14,0l-6.33,5.32c-2.84,2.38-5,2.69-8.5,3.43l-6.44,1.38c-.65-4.24-3.85-8.61-7.39-10.93a7.85,7.85,0,0,0-.66-1.77A84.61,84.61,0,0,1,126.5,18.93c.37-.2.45-.45.38-.64a.49.49,0,0,0-.7-.2A106.6,106.6,0,0,0,97,41.17a11.51,11.51,0,0,0-16.49,0A106.6,106.6,0,0,0,51.31,18.09a.49.49,0,0,0-.7.2c-.07.19,0,.44.38.64A84.61,84.61,0,0,1,79.38,42.8a7,7,0,0,0-.66,1.77C75.18,46.89,72,51.26,71.33,55.5l-6.44-1.38c-3.48-.74-5.66-1-8.5-3.43l-6.33-5.32c-.48-.41-.92-.3-1.14,0a.72.72,0,0,0,.2,1l6.61,5.4c3.28,2.68,4.33,3.45,8.64,4.4l7,1.53a5.74,5.74,0,0,0,3,4c-2.49,1.13-4.34,7.18-5.66,14.87a12.08,12.08,0,0,0-4.25-2c-2.67-.55-5.13.45-7.62,3.51-1.34,1.65-4.54,6.13-6.37,8.72-1.51,2.14-3.07,4-5.64,5L28.62,98.38c-.45.18-.54.51-.45.77a.58.58,0,0,0,.77.33Q30,99.09,45.56,93c2.63-1,5.84-2.11,7.55-4.47,1.08-1.5,3-4.55,7.47-10.82.6-.85,1.12-.68,1.65.06s2.2,3.11,5.2,7.34c-.37,3.22-.66,6.51-.89,9.69a26.77,26.77,0,0,0-5.37-1.52c-4.26-.62-5.43,2-6,5.65-1.65,10.15-2.71,20.9-4,31.18-.29,2.31-.5,4.76-1.79,6.71-1.54,2.36-6.11,9.31-14.12,21.53-.3.45-.23.81,0,1a.68.68,0,0,0,1-.26q.72-1.09,14.34-21.44A19.47,19.47,0,0,0,54,129.57s1.34-11.89,3.59-29.79c.22-1.77.63-2,1.94-.85L66,104.67c-.36,14.46,1.48,27.25,10.93,37.2a142.47,142.47,0,0,1-3.23-25.16A58.58,58.58,0,0,0,88.75,150.61Z"/><path class="cls-2" d="M90.94,175.3a2.19,2.19,0,0,1-4.38,0V160.39A71.41,71.41,0,0,1,47,147l2.45-3.66a67.3,67.3,0,0,0,78.69,0l2.45,3.66a71.38,71.38,0,0,1-39.6,13.41V175.3ZM42.41,143.43l2.43-3.71A67.12,67.12,0,0,1,21.51,90.94H36.35a2.2,2.2,0,0,0,0-4.39H21.51A66.92,66.92,0,0,1,32.36,52,67.63,67.63,0,0,1,60.75,27.56q-2-1.5-4.19-2.87A71.66,71.66,0,0,0,17.1,86.56H2.19a2.19,2.19,0,1,0,0,4.38H17.1a71.52,71.52,0,0,0,25.31,52.49ZM62.2,22.15a71.43,71.43,0,0,1,24.35-5V2.19a2.2,2.2,0,0,1,4.39,0V17.1a71.38,71.38,0,0,1,24.35,5c-1.45,1-2.88,2-4.29,3.09a67,67,0,0,0-20.06-3.73V35.65a14.3,14.3,0,0,0-4.38,0V21.51a67,67,0,0,0-20.07,3.73q-2.11-1.59-4.29-3.09Zm58.73,2.54q-2.15,1.36-4.19,2.87a67.3,67.3,0,0,1,39.25,59H141.14a2.19,2.19,0,0,0,0,4.38H156a67.13,67.13,0,0,1-23.34,48.78l2.43,3.71a71.49,71.49,0,0,0,25.31-52.49H175.3a2.2,2.2,0,0,0,0-4.39H160.39a71.66,71.66,0,0,0-39.46-61.87Z"/></g></g></svg>